<svg id="visual" viewBox="0 0 960 540" width="960" height="540" xmlns="http://www.w3.org/2000/svg" xmlns:xlink="http://www.w3.org/1999/xlink" version="1.1"><rect x="0" y="0" width="960" height="540" fill="#05668D"></rect><defs><linearGradient id="grad1_0" x1="43.8%" y1="100%" x2="100%" y2="0%"><stop offset="14.444444444444446%" stop-color="#f0f3bd" stop-opacity="1"></stop><stop offset="85.55555555555554%" stop-color="#f0f3bd" stop-opacity="1"></stop></linearGradient></defs><defs><linearGradient id="grad1_1" x1="43.8%" y1="100%" x2="100%" y2="0%"><stop offset="14.444444444444446%" stop-color="#f0f3bd" stop-opacity="1"></stop><stop offset="85.55555555555554%" stop-color="#05668d" stop-opacity="1"></stop></linearGradient></defs><defs><linearGradient id="grad2_0" x1="0%" y1="100%" x2="56.3%" y2="0%"><stop offset="14.444444444444446%" stop-color="#f0f3bd" stop-opacity="1"></stop><stop offset="85.55555555555554%" stop-color="#f0f3bd" stop-opacity="1"></stop></linearGradient></defs><defs><linearGradient id="grad2_1" x1="0%" y1="100%" x2="56.3%" y2="0%"><stop offset="14.444444444444446%" stop-color="#05668d" stop-opacity="1"></stop><stop offset="85.55555555555554%" stop-color="#f0f3bd" stop-opacity="1"></stop></linearGradient></defs><g transform="translate(960, 540)"><path d="M-243 0C-238.2 -31.2 -233.5 -62.3 -222.7 -92.2C-211.8 -122.1 -194.9 -150.7 -171.8 -171.8C-148.8 -192.9 -119.6 -206.5 -89.9 -217.1C-60.3 -227.7 -30.1 -235.4 0 -243L0 0Z" fill="#60b2a4"></path><path d="M-121.5 0C-119.1 -15.6 -116.7 -31.2 -111.3 -46.1C-105.9 -61.1 -97.4 -75.4 -85.9 -85.9C-74.4 -96.5 -59.8 -103.3 -45 -108.6C-30.1 -113.9 -15.1 -117.7 0 -121.5L0 0Z" fill="#f0f3bd"></path></g><g transform="translate(0, 0)"><path d="M243 0C240.6 32.8 238.2 65.7 224.5 93C210.8 120.3 185.9 142.2 161.9 161.9C137.9 181.7 114.9 199.3 88 212.5C61.2 225.7 30.6 234.3 0 243L0 0Z" fill="#60b2a4"></path><path d="M121.5 0C120.3 16.4 119.1 32.8 112.3 46.5C105.4 60.2 93 71.1 81 81C69 90.8 57.4 99.7 44 106.2C30.6 112.8 15.3 117.2 0 121.5L0 0Z" fill="#f0f3bd"></path></g></svg>